<svg xmlns="http://www.w3.org/2000/svg" viewBox="0 0 523.62 137.64"><g id="Layer_2" data-name="Layer 2"><g id="Layer_1-2" data-name="Layer 1"><path d="M18.8,0V135.7H0V0Z"/><path d="M125.43,135.7H107.59V58.16H59.13V135.7h-18V41.1h84.33Z"/><path d="M237.09,0V135.7h-18V121.94c-5.23,8.92-18.41,15.7-31.6,15.7-26.17,0-46.14-21.52-46.14-49.24s20-49.24,46.14-49.24c13.38,0,26.56,6.79,31.6,15.7V0Zm-18,105.07V71.92C214,62.62,202.59,56,191,56c-18.22,0-32.18,13.76-32.18,32.37,0,18.42,14,32.38,32.18,32.38C202.59,120.78,214,114.19,219.06,105.07Z"/><path d="M250.86,88.6c0-27.92,21.32-49.44,48.85-49.44,27.34,0,48.86,21.52,48.86,49.44,0,27.72-21.52,49-48.86,49C272.18,137.64,250.86,116.32,250.86,88.6Zm80.26,0c0-18.42-13.77-32.38-31.41-32.38-17.83,0-31.4,14-31.4,32.38,0,18,13.57,32,31.4,32C317.35,120.58,331.12,106.62,331.12,88.6Z"/><path d="M357.29,88.6c0-27.92,21.33-49.44,48.85-49.44C433.48,39.16,455,60.68,455,88.6c0,27.72-21.52,49-48.86,49C378.62,137.64,357.29,116.32,357.29,88.6Zm80.26,0c0-18.42-13.76-32.38-31.41-32.38-17.83,0-31.4,14-31.4,32.38,0,18,13.57,32,31.4,32C423.79,120.58,437.55,106.62,437.55,88.6Z"/><path d="M523.62,40.71V57.58a36.32,36.32,0,0,0-11-1.75c-7.75,0-18,6.21-23.65,16.87v63h-18V41.1h18V54.86c5.24-9.5,15.71-15.7,24.82-15.7A30.1,30.1,0,0,1,523.62,40.71Z"/></g></g></svg>