<?xml version="1.0" encoding="utf-8"?>
<!-- Generator: Adobe Illustrator 24.2.0, SVG Export Plug-In . SVG Version: 6.00 Build 0)  -->
<svg version="1.1" id="Layer_1" xmlns="http://www.w3.org/2000/svg" xmlns:xlink="http://www.w3.org/1999/xlink" x="0px" y="0px"
	 viewBox="0 0 557.5 232.2" style="enable-background:new 0 0 557.5 232.2;" xml:space="preserve">
<style type="text/css">
	.st0{fill:#1A191A;}
</style>
<g id="Layer_2_1_">
	<g id="Layer_1-2">
		<path class="st0" d="M0,0h27l31.2,72.3L90.9,0h22.7v105H91.3V43.4L64.5,105h-16L22.2,43.4V105H0V0z"/>
		<path class="st0" d="M119.8,68.3c0-21.9,16.5-38.4,38.3-38.4c18.4,0,34.1,12.6,36,29.5h-21.5c-1.5-5.4-7.5-9.3-14.6-9.3
			c-10,0-17.6,7.7-17.6,18.2c0,10.2,7.5,18,17.6,18c7.1,0,13.2-4.2,14.7-9.9h21.4c-1.6,17.5-17.4,30.2-36.2,30.2
			C136.4,106.5,119.8,90.2,119.8,68.3z"/>
		<path class="st0" d="M200.6,0h27l31.2,72.3L291.4,0h22.6v105h-22.2V43.4L265,105h-16l-26.2-61.7V105h-22.2V0z"/>
		<path class="st0" d="M397.6,31.4V105h-21.2v-8.7c-3.6,6-12.5,10.2-21.8,10.2c-19.2,0-34.3-17.1-34.3-38.4s15.1-38.3,34.3-38.3
			c9.1,0,18.1,4.2,21.8,10.2v-8.7L397.6,31.4z M376.5,77.3v-18c-3.7-5.9-10.1-9.5-17.1-9.5c-9.9-0.2-18.1,7.6-18.3,17.5
			c0,0.3,0,0.5,0,0.8c-0.2,9.9,7.6,18.1,17.5,18.3c0.3,0,0.5,0,0.8,0C366.7,86.4,373.3,82.5,376.5,77.3L376.5,77.3z"/>
		<path class="st0" d="M475,105h-21.1V51.5h-26.2V105h-21.2V31.4H475V105z"/>
		<path class="st0" d="M532,105l-14-20l-14,20h-25.2l26.5-37.9l-24.9-35.7H506l12.1,17.4l12.3-17.4h25.2l-24.8,35.6l26.7,38.1H532z"
			/>
		<path class="st0" d="M1.6,125.8h21.1l35,79.2l36-79.2h18v105H94.2v-70.5l-31.3,70.5H50l-30.8-70.5v70.5H1.6V125.8z"/>
		<path class="st0" d="M190.6,199.6h-56.2c2.1,10.8,9.6,17.6,21.4,17.6c9,0,16.1-4.2,17.6-10.5h16.8c-2.7,15.4-16.6,25.6-34.7,25.6
			c-21.4,0-38.1-16.6-38.1-38.6c-0.2-20.6,16.3-37.6,36.9-37.8c0.3,0,0.6,0,0.9,0c19.8,0,35.8,15.1,35.8,36.6
			C191.1,194.9,191,197.2,190.6,199.6z M173,185.3c-1.5-8.4-8.6-14.2-18.6-14.2c-9.9,0-17.1,5.2-19.5,14.2H173z"/>
		<path class="st0" d="M269.2,125.8v105h-16.6v-9.9c-3.9,6.6-13.6,11.4-23.4,11.4c-19.8,0-35.2-16.8-35.2-38.2s15.4-38.1,35.2-38.1
			c9.8,0,19.5,4.8,23.4,11.4v-41.5H269.2z M252.6,205.4v-22.5c-3.6-6.4-11.6-11.1-19.9-11.1c-12.6,0-22.2,9.4-22.2,22.2
			s9.6,22.4,22.2,22.4C240.9,216.4,249,211.7,252.6,205.4z"/>
		<path class="st0" d="M300.1,134c0,6-4.8,10.8-10.8,10.8c-5.9-0.2-10.6-5.1-10.4-11.1c0.2-5.7,4.7-10.2,10.4-10.4
			C295.2,123.4,300,128.1,300.1,134z M297.6,157.4v73.4H281v-73.4H297.6z"/>
		<path class="st0" d="M380.8,157.4v73.4h-16.6v-9.9c-3.9,6.6-13.6,11.4-23.4,11.4c-19.8,0-35.2-16.8-35.2-38.2s15.5-38.1,35.2-38.1
			c9.7,0,19.5,4.8,23.4,11.4v-9.9H380.8z M364.2,205.4v-22.5c-3.6-6.4-11.5-11.1-19.9-11.1c-12.6,0-22.2,9.4-22.2,22.2
			s9.6,22.4,22.2,22.4C352.5,216.4,360.6,211.7,364.2,205.4z"/>
	</g>
</g>
</svg>
