<svg xmlns="http://www.w3.org/2000/svg" viewBox="0 0 698.29 138.96"><g id="Layer_2" data-name="Layer 2"><g id="Layer_1-2" data-name="Layer 1"><path d="M136.65,69.1c0,39.56-29.73,69.86-68.33,69.86C29.53,139,0,108.66,0,69.1,0,30.11,29.53,0,68.32,0,106.92,0,136.65,30.11,136.65,69.1Zm-117.54,0C19.11,98.43,40.53,121,68.32,121s49.22-22.58,49.22-51.91C117.54,40.34,96.12,18,68.32,18S19.11,40.34,19.11,69.1Z"/><path d="M241.06,42.85V137H223.3v-13.7c-5.79,9.46-17.94,15.63-30.88,15.63-23.35,0-38.6-16.6-38.6-42.07v-54h18V94.19c0,16.59,9.85,27.21,24.71,27.21,11,0,21.61-5.79,26.82-15.05V42.85Z"/><path d="M288.35,59.83v43.43c0,13.12,7.72,18.14,18.91,18.14a24.42,24.42,0,0,0,6.56-.77V137a43.8,43.8,0,0,1-10.23,1.16c-19.88,0-33-11.58-33-34.55V59.83H252.25v-17h18.34V17.37h17.76V42.85h25.47v17Z"/><path d="M413,1.93V137H395.08v-13.7c-5.21,8.88-18.34,15.63-31.46,15.63-26.06,0-45.94-21.42-45.94-49s19.88-49,45.94-49c13.31,0,26.44,6.75,31.46,15.63V1.93ZM395.08,106.54v-33c-5-9.26-16.41-15.82-28-15.82-18.14,0-32,13.7-32,32.23,0,18.33,13.9,32.23,32,32.23C378.67,122.17,390.06,115.61,395.08,106.54Z"/><path d="M426.73,90.13c0-27.79,21.23-49.21,48.64-49.21,27.21,0,48.64,21.42,48.64,49.21,0,27.6-21.43,48.83-48.64,48.83C448,139,426.73,117.73,426.73,90.13Zm79.91,0c0-18.33-13.71-32.23-31.27-32.23-17.76,0-31.27,13.9-31.27,32.23,0,18,13.51,31.85,31.27,31.85C492.93,122,506.64,108.08,506.64,90.13Z"/><path d="M532.69,90.13c0-27.79,21.23-49.21,48.64-49.21,27.21,0,48.64,21.42,48.64,49.21,0,27.6-21.43,48.83-48.64,48.83C553.92,139,532.69,117.73,532.69,90.13Zm79.91,0c0-18.33-13.71-32.23-31.27-32.23-17.76,0-31.27,13.9-31.27,32.23,0,18,13.51,31.85,31.27,31.85C598.89,122,612.6,108.08,612.6,90.13Z"/><path d="M698.29,42.46V59.25a36.33,36.33,0,0,0-11-1.73c-7.72,0-17.95,6.17-23.55,16.79V137h-18V42.85h18v13.7c5.21-9.46,15.63-15.63,24.7-15.63A30,30,0,0,1,698.29,42.46Z"/></g></g></svg>