<svg xmlns="http://www.w3.org/2000/svg" viewBox="0 0 1169.59 178.44"><g id="Layer_2" data-name="Layer 2"><g id="Layer_1-2" data-name="Layer 1"><path d="M95.43,41c0,23.46-18.14,41.21-42.39,41.21H19.13V138H0V0H53C77.29,0,95.43,17.55,95.43,41ZM76.5,41C76.5,28,66.25,18.14,53,18.14H19.13V64.08H53C66.25,64.08,76.5,54,76.5,41Z"/><path d="M199.93,83v55H181.79V85.57c0-17-10.26-27.8-25.44-27.8A32,32,0,0,0,129.14,73V138H110.81V0h18.33V55.6c6.31-9.46,18.34-15.77,31.35-15.77C184.35,39.83,199.93,56.78,199.93,83Z"/><path d="M216.09,90.11c0-28.4,21.69-50.28,49.69-50.28,27.8,0,49.68,21.88,49.68,50.28,0,28.19-21.88,49.88-49.68,49.88C237.78,140,216.09,118.3,216.09,90.11Zm81.63,0c0-18.74-14-32.93-31.94-32.93-18.14,0-31.94,14.19-31.94,32.93,0,18.33,13.8,32.53,31.94,32.53C283.72,122.64,297.72,108.44,297.72,90.11Z"/><path d="M355.29,59.15v44.36c0,13.41,7.89,18.54,19.32,18.54a25.08,25.08,0,0,0,6.71-.79V138a44.62,44.62,0,0,1-10.45,1.18c-20.31,0-33.72-11.83-33.72-35.29V59.15H318.42V41.8h18.73v-26h18.14v26h26V59.15Z"/><path d="M385.26,90.11c0-28.4,21.69-50.28,49.69-50.28,27.8,0,49.68,21.88,49.68,50.28C484.63,118.3,462.75,140,435,140,407,140,385.26,118.3,385.26,90.11Zm81.63,0c0-18.74-14-32.93-31.94-32.93C416.81,57.18,403,71.37,403,90.11c0,18.33,13.8,32.53,31.94,32.53C452.89,122.64,466.89,108.44,466.89,90.11Z"/><path d="M590.91,41.8v92.86c0,27-20.31,43.78-47.91,43.78-19.92,0-45.55-9.47-46.53-35.49h17.94c.59,12,13,19.12,28.19,19.12,17,0,30-10.84,30-27.41v-12c-5.32,8.87-18.73,15.57-32.14,15.57-26.61,0-46.92-21.49-46.92-49.29,0-27.6,20.31-49.09,46.92-49.09,13.61,0,27,6.7,32.14,15.77V41.8Zm-18.34,63.88V72.56c-5.12-9.27-16.76-15.78-28.59-15.78-18.53,0-32.73,13.61-32.73,32.14s14.2,32.34,32.73,32.34C555.81,121.26,567.45,114.75,572.57,105.68Z"/><path d="M665.83,41.41V58.56a37.25,37.25,0,0,0-11.24-1.78c-7.88,0-18.33,6.31-24.05,17.16V138H612.2V41.8h18.34v14c5.32-9.66,16-16,25.24-16A30.46,30.46,0,0,1,665.83,41.41Z"/><path d="M764,41.8V138H745.69V124c-5.33,9.07-18.74,16-32.14,16-26.62,0-46.93-21.89-46.93-50.08s20.31-50.08,46.93-50.08c13.6,0,27,6.9,32.14,16v-14Zm-18.33,65.06V73.15C740.56,63.68,728.93,57,717.1,57c-18.54,0-32.73,14-32.73,32.93,0,18.73,14.19,32.93,32.73,32.93C728.93,122.84,740.56,116.13,745.69,106.86Z"/><path d="M882.72,89.91c0,28.19-20.31,50.08-46.93,50.08-13.41,0-27-6.9-32.14-16v48.9H785.32V41.8h18.33v14c5.33-9.07,18.73-16,32.14-16C862.41,39.83,882.72,61.71,882.72,89.91Zm-17.75,0C865,71.18,850.78,57,832.24,57c-11.83,0-23.46,6.7-28.59,16v33.72c5.13,9.46,16.76,16.17,28.59,16.17C850.78,122.84,865,108.84,865,89.91Z"/><path d="M988,83v55H969.86V85.57c0-17-10.25-27.8-25.43-27.8A32,32,0,0,0,917.22,73V138H898.88V0h18.34V55.6c6.31-9.46,18.34-15.77,31.35-15.77C972.43,39.83,988,56.78,988,83Z"/><path d="M1099.4,94.84h-77.29c2.17,17.35,14,28.78,31.94,28.78,13.41,0,24.25-6.5,26.62-16.76h18.14C1095.26,127,1076.73,140,1053.46,140c-28,0-49.29-21.89-49.29-50.48,0-27.8,21.49-49.68,49.09-49.68,25.83,0,46.53,19.91,46.53,47.71C1099.79,89.32,1099.6,93.26,1099.4,94.84Zm-19.32-15.38c-1.58-13.41-12.42-23.07-27.61-23.07-15,0-26.42,8.67-29.77,23.07Z"/><path d="M1169.59,41.41V58.56a37.25,37.25,0,0,0-11.24-1.78c-7.88,0-18.33,6.31-24,17.16V138H1116V41.8h18.34v14c5.32-9.66,16-16,25.24-16A30.46,30.46,0,0,1,1169.59,41.41Z"/></g></g></svg>