<svg xmlns="http://www.w3.org/2000/svg" viewBox="0 0 557.54 232.25"><defs><style>.cls-1{fill:#fff8f3;}</style></defs><g id="Layer_2" data-name="Layer 2"><g id="Layer_1-2" data-name="Layer 1"><path class="cls-1" d="M0,0H27L58.2,72.3,90.9,0h22.65V105H91.35V43.35L64.5,105h-16L22.2,43.35V105H0Z"/><path class="cls-1" d="M119.85,68.25c0-21.9,16.5-38.4,38.25-38.4,18.45,0,34.05,12.6,36,29.55H172.65c-1.5-5.4-7.5-9.3-14.55-9.3-10,0-17.55,7.65-17.55,18.15,0,10.2,7.5,18,17.55,18,7.05,0,13.2-4.2,14.7-9.9h21.45c-1.65,17.55-17.4,30.15-36.15,30.15C136.35,106.5,119.85,90.15,119.85,68.25Z"/><path class="cls-1" d="M200.55,0h27l31.2,72.3L291.44,0h22.65V105h-22.2V43.35L265,105H249L222.75,43.35V105h-22.2Z"/><path class="cls-1" d="M397.64,31.35V105H376.49V96.3c-3.6,6-12.45,10.2-21.75,10.2-19.2,0-34.34-17.1-34.34-38.4s15.14-38.25,34.34-38.25c9.15,0,18.15,4.2,21.75,10.2v-8.7Zm-21.15,45.9v-18a20.07,20.07,0,0,0-17.1-9.45,17.91,17.91,0,0,0-18.3,18.3,17.91,17.91,0,0,0,18.3,18.3C366.74,86.4,373.34,82.5,376.49,77.25Z"/><path class="cls-1" d="M475,105H453.89V51.45H427.64V105H406.49V31.35H475Z"/><path class="cls-1" d="M532,105l-13.95-20-14,20h-25.2l26.55-37.95-24.9-35.7h25.5l12.15,17.4,12.3-17.4h25.2L530.84,66.9l26.7,38.1Z"/><path class="cls-1" d="M1.65,125.75H22.8l35,79.2,36-79.2h18v105H94.2v-70.5l-31.35,70.5H50L19.2,160.25v70.5H1.65Z"/><path class="cls-1" d="M190.65,199.55H134.4c2.1,10.8,9.6,17.55,21.45,17.55,9,0,16.05-4.2,17.55-10.5h16.8c-2.7,15.45-16.65,25.65-34.65,25.65-21.45,0-38.1-16.65-38.1-38.55a37.36,37.36,0,0,1,37.8-37.8c19.8,0,35.85,15.15,35.85,36.6A49.15,49.15,0,0,1,190.65,199.55ZM173,185.3c-1.5-8.4-8.55-14.25-18.6-14.25-9.9,0-17.1,5.25-19.5,14.25Z"/><path class="cls-1" d="M269.25,125.75v105H252.6v-9.9c-3.9,6.6-13.65,11.4-23.4,11.4-19.8,0-35.25-16.8-35.25-38.25s15.45-38.1,35.25-38.1c9.75,0,19.5,4.8,23.4,11.4V125.75ZM252.6,205.4V182.9c-3.6-6.45-11.55-11.1-19.95-11.1-12.6,0-22.2,9.45-22.2,22.2s9.6,22.35,22.2,22.35C240.9,216.35,249,211.7,252.6,205.4Z"/><path class="cls-1" d="M300.15,134a10.85,10.85,0,0,1-10.8,10.8,10.73,10.73,0,0,1,0-21.45A10.92,10.92,0,0,1,300.15,134Zm-2.55,23.4v73.35H281V157.4Z"/><path class="cls-1" d="M380.84,157.4v73.35H364.19v-9.9c-3.9,6.6-13.65,11.4-23.39,11.4-19.8,0-35.25-16.8-35.25-38.25S321,155.9,340.8,155.9c9.74,0,19.49,4.8,23.39,11.4v-9.9Zm-16.65,48V182.9c-3.6-6.45-11.54-11.1-19.94-11.1-12.6,0-22.2,9.45-22.2,22.2s9.6,22.35,22.2,22.35C352.5,216.35,360.59,211.7,364.19,205.4Z"/></g></g></svg>